<?xml version="1.0" encoding="UTF-8" standalone="no"?>
<!-- Created with Inkscape (http://www.inkscape.org/) -->

<svg
   xmlns:dc="http://purl.org/dc/elements/1.1/"
   xmlns:cc="http://creativecommons.org/ns#"
   xmlns:rdf="http://www.w3.org/1999/02/22-rdf-syntax-ns#"
   xmlns:svg="http://www.w3.org/2000/svg"
   xmlns="http://www.w3.org/2000/svg"
   xmlns:xlink="http://www.w3.org/1999/xlink"
   xmlns:sodipodi="http://sodipodi.sourceforge.net/DTD/sodipodi-0.dtd"
   xmlns:inkscape="http://www.inkscape.org/namespaces/inkscape"
   width="128"
   height="128"
   id="svg3834"
   version="1.1"
   inkscape:version="0.48.2 r9819"
   sodipodi:docname="New document 6">
  <defs
     id="defs3836">
    <linearGradient
       id="linearGradient4370">
      <stop
         style="stop-color:#ececec;stop-opacity:1;"
         offset="0"
         id="stop4372" />
      <stop
         style="stop-color:#939393;stop-opacity:1;"
         offset="1"
         id="stop4374" />
    </linearGradient>
    <linearGradient
       inkscape:collect="always"
       xlink:href="#linearGradient4370"
       id="linearGradient4376"
       x1="18.301297"
       y1="18.564535"
       x2="46.102157"
       y2="18.564535"
       gradientUnits="userSpaceOnUse"
       gradientTransform="matrix(1.0055546,-0.02146262,-0.07528139,0.87369315,1.2521152,926.04914)" />
  </defs>
  <sodipodi:namedview
     id="base"
     pagecolor="#ffffff"
     bordercolor="#666666"
     borderopacity="1.0"
     inkscape:pageopacity="0.0"
     inkscape:pageshadow="2"
     inkscape:zoom="5.6"
     inkscape:cx="65.175104"
     inkscape:cy="71.860703"
     inkscape:document-units="px"
     inkscape:current-layer="layer1"
     showgrid="false"
     showguides="true"
     inkscape:guide-bbox="true"
     inkscape:window-width="1920"
     inkscape:window-height="1060"
     inkscape:window-x="-8"
     inkscape:window-y="-8"
     inkscape:window-maximized="1">
    <sodipodi:guide
       orientation="0,1"
       position="145.96704,64"
       id="guide3842" />
    <sodipodi:guide
       orientation="1,0"
       position="64,73.488598"
       id="guide4352" />
  </sodipodi:namedview>
  <metadata
     id="metadata3839">
    <rdf:RDF>
      <cc:Work
         rdf:about="">
        <dc:format>image/svg+xml</dc:format>
        <dc:type
           rdf:resource="http://purl.org/dc/dcmitype/StillImage" />
        <dc:title></dc:title>
      </cc:Work>
    </rdf:RDF>
  </metadata>
  <g
     inkscape:label="Layer 1"
     inkscape:groupmode="layer"
     id="layer1"
     transform="translate(0,-924.36212)">
    <path
       style="fill:#ececec;stroke:none"
       d="m 56.821081,953.36717 -36.112954,0.50508 -15.152288,-21.21321 22.728432,5.80838 0.757615,4.79822 10.354063,-1.76776 2.525382,3.53553 9.091373,1.26269 z"
       id="path4354"
       inkscape:connector-curvature="0" />
    <path
       style="fill:#cccccc;stroke:none;stroke-width:1px;stroke-linecap:butt;stroke-linejoin:miter;stroke-opacity:1"
       d="M 5.0507627,7.791847 1.5152288,39.106576 16.162441,57.54186 20.455589,29.762665 z"
       id="path4356"
       inkscape:connector-curvature="0"
       transform="translate(0,924.36212)" />
    <path
       style="fill:#808080;stroke:none;stroke-width:1px;stroke-linecap:butt;stroke-linejoin:miter;stroke-opacity:1"
       d="m 16.162441,57.289322 4.04061,-27.779195 36.61803,0 0.757614,27.779195 z"
       id="path4358"
       inkscape:connector-curvature="0"
       transform="translate(0,924.36212)" />
    <path
       style="color:#000000;fill:url(#linearGradient4376);fill-opacity:1;fill-rule:nonzero;stroke:none;stroke-width:0.89999998;marker:none;visibility:visible;display:inline;overflow:visible;enable-background:accumulate"
       d="m 19.290949,932.6588 c -0.508914,2.23967 -0.766352,6.24796 -0.913809,7.9593 -0.398989,4.63055 5.974697,9.08562 14.230186,9.94329 8.189532,0.85081 12.888927,-2.20455 13.389276,-6.77303 l -0.113739,-3.43072 -6.294805,-0.19227 -10.566724,1.77895 -0.391874,-4.18856 z"
       id="path4360"
       inkscape:connector-curvature="0"
       sodipodi:nodetypes="csscccccc" />
    <path
       style="color:#000000;fill:#ececec;fill-opacity:1;fill-rule:nonzero;stroke:none;stroke-width:0.89999998;marker:none;visibility:visible;display:inline;overflow:visible;enable-background:accumulate"
       d="m 19.159865,932.26207 c -0.08324,0.29288 -0.113992,0.59492 -0.14048,0.90233 -0.39899,4.63055 5.974696,9.08563 14.230185,9.9433 5.598415,0.58165 10.615758,-0.66745 13.397031,-2.95672 l -4.509372,-0.44877 -2.248048,-3.03158 -10.566724,1.77894 -0.391875,-4.18855 -9.770719,-1.99892 z"
       id="path4364"
       inkscape:connector-curvature="0" />
    <path
       style="fill:#b3b3b3;stroke:none;stroke-width:1px;stroke-linecap:butt;stroke-linejoin:miter;stroke-opacity:1"
       d="m 118.69292,29.762665 -4.54568,12.374369 5.3033,2.525381 2.27284,12.626907 -47.982244,-0.757615 4.04061,-22.98097 -0.757614,-6.565992 z"
       id="path4378"
       inkscape:connector-curvature="0"
       transform="translate(0,924.36212)" />
    <path
       style="fill:#4d4d4d;stroke:none"
       d="m 86.160716,943.25499 -3.571429,7.05357 3.303572,-1.25 z"
       id="path4384"
       inkscape:connector-curvature="0" />
    <path
       style="fill:#e6e6e6;stroke:none"
       d="m 118.44039,29.732027 -14.39468,-5.525201 4.54569,-4.293148 -22.223357,-1.010153 -0.757615,5.808377 -8.764867,2.214196 z"
       id="path4380"
       inkscape:connector-curvature="0"
       transform="translate(0,924.36212)"
       sodipodi:nodetypes="ccccccc" />
    <path
       style="fill:#999999;stroke:none"
       d="m 108.48213,944.14783 -4.46429,4.46429 8.39286,3.39286 z"
       id="path4386"
       inkscape:connector-curvature="0" />
    <path
       style="fill:#cccccc;stroke:none;stroke-width:1px;stroke-linecap:butt;stroke-linejoin:miter;stroke-opacity:1"
       d="M 55.892857,98.178571 43.214286,83.892857 8.3928572,91.035714 c 0,0 -3.75,31.428576 -3.3928572,30.714286 0.3571429,-0.71429 18.214286,-0.17857 18.214286,-0.17857 l -1.071429,-7.67857 18.392857,-1.07143 -3.392857,5 4.107143,3.75 11.785714,0.53571 z"
       id="path4388"
       inkscape:connector-curvature="0"
       transform="translate(0,924.36212)" />
    <path
       style="fill:#e6e6e6;stroke:none"
       d="m 55.714286,98 -10.878206,2.29952 -0.296476,-4.343835 -7.848427,1.309025 0.09454,3.94958 L 23.75,94.964286 8.3928572,91.571428 43.214286,83.892857 z"
       id="path4390"
       inkscape:connector-curvature="0"
       transform="translate(0,924.36212)"
       sodipodi:nodetypes="ccccccccc" />
    <path
       style="fill:#e6e6e6;stroke:none;stroke-width:1px;stroke-linecap:butt;stroke-linejoin:miter;stroke-opacity:1"
       d="m 22.142857,113.17857 14.285715,-11.78571 4.285714,11.42857 z"
       id="path4392"
       inkscape:connector-curvature="0"
       transform="translate(0,924.36212)" />
    <path
       style="fill:#666666;stroke:none;stroke-width:1px;stroke-linecap:butt;stroke-linejoin:miter;stroke-opacity:1"
       d="m 40.892857,121.03571 15.714286,-22.142853 -16.071429,13.750003 -3.214285,5 z"
       id="path4394"
       inkscape:connector-curvature="0"
       transform="translate(0,924.36212)" />
    <path
       style="fill:#f2f2f2;stroke:none"
       d="m 21.964285,1037.8978 -7.321428,-9.6428 -9.1071427,17.3214 17.4999997,0.3572 z"
       id="path4396"
       inkscape:connector-curvature="0"
       sodipodi:nodetypes="ccccc" />
    <path
       style="fill:#666666;stroke:none"
       d="M 14.642857,103.53571 8.75,91.928571 l 15,3.214286 0.587672,-2.82821 12.153001,4.845138 0.295041,4.411645 -14.642857,11.78571 z"
       id="path4398"
       inkscape:connector-curvature="0"
       transform="translate(0,924.36212)"
       sodipodi:nodetypes="cccccccc" />
    <path
       style="fill:#ffffff;stroke:none;stroke-width:1px;stroke-linecap:butt;stroke-linejoin:miter;stroke-opacity:1"
       d="m 44.107143,96.392857 c 0,0 -1.071429,-4.107143 -9.107143,-5.178571 -8.035714,-1.071429 -11.071429,1.428571 -11.071429,1.428571 L 36.25,97.285714 z"
       id="path4400"
       inkscape:connector-curvature="0"
       transform="translate(0,924.36212)"
       sodipodi:nodetypes="csccc" />
    <path
       style="fill:#f2f2f2;stroke:none"
       d="m 112.14286,95.857143 -2.5,12.678567 2.5,9.28572 -24.107146,-3.39286 6.785715,-12.67857 0.357143,-8.214286 z"
       id="path4402"
       inkscape:connector-curvature="0"
       transform="translate(0,924.36212)"
       sodipodi:nodetypes="ccccccc" />
    <path
       style="fill:#e6e6e6;stroke:none;stroke-width:1px;stroke-linecap:butt;stroke-linejoin:miter;stroke-opacity:1"
       d="m 95.178572,93.178571 -10,-5.892857 1.964285,13.214286 -8.75,5.89286 9.821429,8.21428 L 95,102.64286 z"
       id="path4404"
       inkscape:connector-curvature="0"
       transform="translate(0,924.36212)" />
    <path
       style="fill:#999999;stroke:none;stroke-width:1px;stroke-linecap:butt;stroke-linejoin:miter;stroke-opacity:1"
       d="m 87.142857,99.964286 7.142857,2.142854 1.071429,-8.392854 -10.178571,-6.25 z"
       id="path4406"
       inkscape:connector-curvature="0"
       transform="translate(0,924.36212)" />
    <path
       style="fill:#cccccc;stroke:none;stroke-width:1px;stroke-linecap:butt;stroke-linejoin:miter;stroke-opacity:1"
       d="m 85.178572,87.464286 11.785714,-4.285715 10.000004,6.428572 5.89285,6.785714 L 95,93.535714 z"
       id="path4408"
       inkscape:connector-curvature="0"
       transform="translate(0,924.36212)" />
  </g>
</svg>
