<?xml version="1.0" encoding="UTF-8" standalone="no"?>
<!-- Created with Inkscape (http://www.inkscape.org/) -->

<svg
   xmlns:dc="http://purl.org/dc/elements/1.1/"
   xmlns:cc="http://creativecommons.org/ns#"
   xmlns:rdf="http://www.w3.org/1999/02/22-rdf-syntax-ns#"
   xmlns:svg="http://www.w3.org/2000/svg"
   xmlns="http://www.w3.org/2000/svg"
   xmlns:sodipodi="http://sodipodi.sourceforge.net/DTD/sodipodi-0.dtd"
   xmlns:inkscape="http://www.inkscape.org/namespaces/inkscape"
   width="744.09448819"
   height="1052.3622047"
   id="svg2"
   version="1.1"
   inkscape:version="0.48.2 r9819"
   sodipodi:docname="BlockPlace.svg">
  <defs
     id="defs4">
    <inkscape:path-effect
       fuse_tolerance="0"
       vertical_pattern="false"
       prop_units="false"
       tang_offset="0"
       normal_offset="0"
       spacing="0"
       scale_y_rel="false"
       prop_scale="1"
       copytype="single_stretched"
       pattern="#rect3756"
       is_visible="true"
       id="path-effect3828"
       effect="skeletal" />
    <inkscape:path-effect
       effect="skeletal"
       id="path-effect3760"
       is_visible="true"
       pattern="#rect3756"
       copytype="single_stretched"
       prop_scale="1"
       scale_y_rel="false"
       spacing="0"
       normal_offset="0"
       tang_offset="0"
       prop_units="false"
       vertical_pattern="false"
       fuse_tolerance="0" />
  </defs>
  <sodipodi:namedview
     id="base"
     pagecolor="#ffffff"
     bordercolor="#666666"
     borderopacity="1.0"
     inkscape:pageopacity="0.0"
     inkscape:pageshadow="2"
     inkscape:zoom="0.98994949"
     inkscape:cx="28.83242"
     inkscape:cy="283.98114"
     inkscape:document-units="px"
     inkscape:current-layer="layer1"
     showgrid="false"
     inkscape:window-width="1920"
     inkscape:window-height="1060"
     inkscape:window-x="-8"
     inkscape:window-y="-8"
     inkscape:window-maximized="1" />
  <metadata
     id="metadata7">
    <rdf:RDF>
      <cc:Work
         rdf:about="">
        <dc:format>image/svg+xml</dc:format>
        <dc:type
           rdf:resource="http://purl.org/dc/dcmitype/StillImage" />
        <dc:title></dc:title>
      </cc:Work>
    </rdf:RDF>
  </metadata>
  <g
     inkscape:label="Layer 1"
     inkscape:groupmode="layer"
     id="layer1">
    <rect
       style="color:#000000;fill:#ffffff;fill-opacity:1;fill-rule:nonzero;stroke:none;stroke-width:0.89999998000000003;marker:none;visibility:visible;display:inline;overflow:visible;enable-background:accumulate;opacity:1"
       id="rect3832"
       width="160"
       height="160"
       x="4.0406103"
       y="876.19977"
       inkscape:export-filename="C:\Users\J\Pelit\Legtris\Assets\Materials\Effects\BlockPlace\blockplace.png"
       inkscape:export-xdpi="72"
       inkscape:export-ydpi="72" />
    <path
       inkscape:original-d="m 143.59737,1008.8531 -43.998971,-14.51735 -36.902723,28.01525 0.210392,-46.33164 -38.04759,-26.43945 44.128989,-14.11715 13.388019,-44.35563 27.062814,37.6067 46.32185,-0.97387 -27.40323,37.35939 z"
       inkscape:path-effect="#path-effect3828"
       inkscape:connector-curvature="0"
       id="path3826"
       d="m 141.69638,1014.6146 c -13.78313,-4.8574 -27.50026,-9.7259 -41.1514,-14.6054 0,0 0,0 0,0 -13.023656,8.4305 -26.096675,16.7925 -39.21906,25.0858 -1e-6,0 -1e-6,0 -2e-6,0 -0.05705,-0.666 -0.114261,-1.3319 -0.171631,-1.9979 -1.891237,-13.5808 -5.435777,-27.12674 -10.633621,-40.63797 -12.55799,-9.51086 -24.158732,-20.32676 -34.802224,-32.44769 -0.36708,-0.66565 -0.740713,-1.32237 -1.120899,-1.97015 16.070916,-8.61281 33.410652,-13.58298 52.019207,-14.91049 10e-7,0 2e-6,0 3e-6,0 0.953091,-1.07384 1.867733,-2.16035 2.743925,-3.25956 4.017799,-13.46636 8.278514,-26.85256 12.782144,-40.15862 9.480111,11.92129 19.213128,23.65059 29.199048,35.18789 15.64989,0.19098 31.29834,0.69948 46.94534,1.5255 1e-5,0 1e-5,0 1e-5,0 -6.92095,11.46272 -13.64111,23.06497 -20.16047,34.80676 -1.3153,1.59383 -2.65606,3.16997 -4.02227,4.72842 2.15318,13.11582 4.06371,27.84984 5.7316,44.20201 -7.65307,-14.2674 -15.11144,-29.8333 -22.37511,-46.69768 8.66734,-11.43175 18.69659,-21.9171 30.08777,-31.45604 0,-1e-5 0,-1e-5 0,-1e-5 -7.02094,2.11807 -14.04323,4.53398 -21.06688,7.24775 -8.64691,2.65052 -17.29279,5.07507 -25.93764,7.27366 -5.05231,-16.11788 -10.646696,-31.82423 -16.783158,-47.11906 -1.007309,15.44767 -2.660932,30.68209 -4.96087,45.70325 0,1e-5 -10e-7,1e-5 -2e-6,2e-5 -16.442522,1.10976 -32.661172,2.86223 -48.655952,5.25741 13.575265,6.82919 26.747994,14.20715 39.518188,22.1339 -2.664704,15.95211 -4.64897,31.8899 -5.9528,47.8134 2.344094,-1.9789 4.704748,-3.9348 7.081961,-5.8677 9.56819,-8.6901 18.749671,-17.91765 27.544444,-27.68255 12.117089,2.36092 24.718269,4.64107 37.803539,6.84046 2.51484,6.89099 4.36711,13.89249 5.55681,21.00459 z"
       inkscape:transform-center-y="-2.8482068"
       inkscape:transform-center-x="3.8596263"
       style="color:#000000;fill:#87a200;stroke:none;stroke-width:0.89999998000000003;marker:none;visibility:visible;display:inline;overflow:visible;enable-background:accumulate;fill-opacity:1" />
    <path
       style="color:#000000;fill:#e7ed00;stroke:none;stroke-width:0.89999998000000003;stroke-linecap:round;stroke-linejoin:round;stroke-miterlimit:4;stroke-opacity:0.57446810000000004;stroke-dashoffset:0;marker:none;visibility:visible;display:inline;overflow:visible;enable-background:accumulate;fill-opacity:0.80000001"
       inkscape:transform-center-x="6.2753613"
       inkscape:transform-center-y="-1.3423826"
       d="m 154.36227,1015.4195 c -16.21403,-4.0081 -32.36339,-8.0335 -48.44807,-12.076 -13.712782,11.0287 -27.481145,21.9936 -41.305092,32.8949 -1e-6,0 -2e-6,0 -2e-6,0 -0.127375,-0.7479 -0.254907,-1.4957 -0.382596,-2.2436 -3.335578,-15.3333 -8.3139,-30.4768 -14.934967,-45.43064 -15.116778,-9.26125 -29.402978,-19.91161 -42.8585993,-31.95106 -0.5254131,-0.68322 -1.0565123,-1.35694 -1.5932975,-2.02114 1e-6,0 2e-6,0 3e-6,0 17.1125618,-10.90291 35.8301308,-18.2983 56.1527058,-22.18615 0.890475,-1.36827 1.741479,-2.74557 2.553011,-4.13189 3.107427,-15.62135 6.464217,-31.1857 10.070371,-46.69304 11.930401,12.55242 24.094576,24.88997 36.492523,37.01263 17.67344,-1.51789 35.37523,-2.71952 53.10538,-3.6049 0,0 1e-5,0 1e-5,0 -6.75542,13.6345 -13.29782,27.38909 -19.62723,41.26375 -1.2912,1.92971 -2.60941,3.84421 -3.95461,5.74348 4.24331,14.75502 8.39688,31.14386 12.46071,49.16656 -9.827,-15.38553 -19.58199,-32.08205 -29.26497,-50.08958 8.62824,-13.98705 18.7012,-27.15965 30.21888,-39.51781 0,0 0,0 0,0 -7.67044,2.86903 -15.31428,6.03472 -22.93152,9.49708 -9.55552,3.58823 -19.13123,6.95139 -28.72711,10.08949 -7.915899,-17.14594 -16.332865,-33.83132 -25.250902,-50.05612 0.03335,17.52121 -0.596778,34.89075 -1.890375,52.10863 -18.18653,3.46782 -36.089871,7.55451 -53.710024,12.26007 5e-6,0 10e-6,10e-6 1.4e-5,10e-6 15.975429,6.55091 31.601591,13.68596 46.878485,21.40513 -0.969674,18.21186 -1.263255,36.3456 -0.880744,54.4013 2.461898,-2.4785 4.942441,-4.9357 7.441631,-7.3716 9.934375,-10.6744 19.433327,-21.8476 28.496855,-33.51947 13.85315,1.57202 28.18068,3.0182 42.98259,4.33856 3.61826,6.73161 6.58724,13.63541 8.90694,20.71141 z"
       id="path2985"
       inkscape:connector-curvature="0"
       inkscape:path-effect="#path-effect3760"
       inkscape:original-d="m 155.71429,1009.5051 -51.27483,-11.7212 -38.7241,35.5941 -4.697296,-52.3873 -45.818373,-25.82968 48.371737,-20.65596 10.406791,-51.55765 34.592671,39.62121 52.25012,-6.03475 -26.99228,45.14322 z" />
    <path
       style="color:#000000;fill:#333333;stroke:none;stroke-width:0.89999998;marker:none;visibility:visible;display:inline;overflow:visible;enable-background:accumulate"
       d="m 62.755615,422.48897 98.786105,-0.88142 92.00242,-17.55104 55.88905,22.75953 182.50587,-6.11799 54.26542,11.84087 -117.1777,20.51653 -279.44859,-20.07878 -75.710897,8.35384 z"
       id="rect3756"
       inkscape:connector-curvature="0"
       sodipodi:nodetypes="cccccccccc" />
    <rect
       style="color:#000000;fill:#000000;fill-opacity:0;fill-rule:nonzero;stroke:none;stroke-width:0.89999998000000003;marker:none;visibility:visible;display:inline;overflow:visible;enable-background:accumulate"
       id="rect3830"
       width="171.72594"
       height="171.72594"
       x="1.0101525"
       y="871.54486" />
  </g>
</svg>
